/home/minht/3dpredictsim_tutorial/predsim_tutorial/Results/Case_9/GRF.mot
version=1
nRows=22
nColumns=19
inDegrees=yes
endheader 
time	r_ground_force_vx	r_ground_force_vy	r_ground_force_vz	r_ground_force_px	r_ground_force_py	r_ground_force_pz	l_ground_force_vx	l_ground_force_vy	l_ground_force_vz	l_ground_force_px	l_ground_force_py	l_ground_force_pz	r_ground_torque_x	r_ground_torque_y	r_ground_torque_z	l_ground_torque_x	l_ground_torque_y	l_ground_torque_z	
          0.00000000	        -59.57769347	         47.20677888	         -9.54399030	         -5.20444336	          0.00000000	          1.25768643	        130.30968319	        856.15047235	         -9.08084362	          0.00675303	          0.00000000	         -0.00493551	          0.00000000	        137.22593877	          0.00000000	          0.00000000	          7.08401403	          0.00000000	
          0.03131656	        -59.73261149	        194.13439371	        -27.26625240	         -1.02765846	          0.00000000	          0.28835048	        112.77339853	        746.61701495	         -6.12014379	          0.03917672	          0.00000000	         -0.02184179	          0.00000000	         57.25648397	          0.00000000	          0.00000000	         11.38602183	          0.00000000	
          0.06263313	       -113.37948629	        727.20244348	        -18.27169560	         -0.18793600	          0.00000000	          0.06468719	         87.22319528	        573.27611300	          4.04029894	          0.23708894	          0.00000000	         -0.09688638	          0.00000000	         22.40542118	          0.00000000	          0.00000000	         17.02778247	          0.00000000	
          0.09394969	       -128.82264040	        884.19967429	        -14.82933934	         -0.09878949	          0.00000000	          0.03972309	         54.24222521	        406.61800345	         24.20414609	          0.42060576	          0.00000000	         -0.16582744	          0.00000000	         19.17049906	          0.00000000	          0.00000000	         26.83677915	          0.00000000	
          0.12526625	       -106.47178254	        873.57181207	         -7.91144193	         -0.05507116	          0.00000000	          0.02746282	         26.00434469	        253.34365963	         32.02342803	          0.67560159	          0.00000000	         -0.26255711	          0.00000000	         13.49250352	          0.00000000	          0.00000000	         35.70708315	          0.00000000	
          0.15658282	        -78.98223036	        848.91990308	         -0.45756427	         -0.03525338	          0.00000000	          0.01957618	          9.56915341	        169.56991625	         39.65531666	          0.99054491	          0.00000000	         -0.38159105	          0.00000000	         10.26480068	          0.00000000	          0.00000000	         48.52701251	          0.00000000	
          0.18789938	        -58.26687775	        827.54820719	          4.15616760	         -0.02409290	          0.00000000	          0.01318124	          4.86497336	        116.49355021	         42.32094579	          1.42302317	          0.00000000	         -0.54283513	          0.00000000	          8.70292782	          0.00000000	          0.00000000	         66.71352358	          0.00000000	
          0.21921595	        -48.58226484	        837.92146828	          5.75424390	         -0.01073399	          0.00000000	          0.00573340	        -10.54847323	         54.86561097	         32.65801043	          3.11435794	          0.00000000	         -1.16981152	          0.00000000	          4.67929533	          0.00000000	          0.00000000	         91.56331218	          0.00000000	
          0.25053251	        -41.25261234	        861.90364408	          6.83706653	         -0.00128690	          0.00000000	          0.00067603	          0.00000000	          0.00000000	          0.00000000	          0.00000000	          0.00000000	          0.00000000	          0.00000000	         -0.11904419	          0.00000000	          0.00000000	          0.00000000	          0.00000000	
          0.28184907	        -31.62097137	        861.59530709	          9.13737862	         -0.00003712	          0.00000000	          0.00002488	          0.00000000	          0.00000000	          0.00000000	          0.00000000	          0.00000000	          0.00000000	          0.00000000	         -0.03472369	          0.00000000	          0.00000000	          0.00000000	          0.00000000	
          0.31316564	        -24.01270830	        852.23063194	         11.79758423	         -0.00000482	          0.00000000	          0.00000774	          0.00000000	          0.00000000	          0.00000000	          0.00000000	          0.00000000	          0.00000000	          0.00000000	         -0.01295310	          0.00000000	          0.00000000	          0.00000000	          0.00000000	
          0.34448220	        -17.75120627	        852.56147231	         14.78367533	          0.00000250	          0.00000000	          0.00000885	          0.00000000	          0.00000000	          0.00000000	          0.00000000	          0.00000000	          0.00000000	          0.00000000	         -0.01542554	          0.00000000	          0.00000000	          0.00000000	          0.00000000	
          0.37579876	         -8.92296608	        858.98938223	         17.36349379	          0.00002222	          0.00000000	          0.00002021	          0.00000000	          0.00000000	          0.00000000	          0.00000000	          0.00000000	          0.00000000	          0.00000000	         -0.03569985	          0.00000000	          0.00000000	          0.00000000	          0.00000000	
          0.40711533	          2.96790085	        861.74554315	         18.45700582	          0.00007068	          0.00000000	          0.00003979	          0.00000000	          0.00000000	          0.00000000	          0.00000000	          0.00000000	          0.00000000	          0.00000000	         -0.07269332	          0.00000000	          0.00000000	          0.00000000	          0.00000000	
          0.43843189	         12.49546184	        866.66532699	         17.96811945	          0.00010198	          0.00000000	          0.00004470	          0.00000000	          0.00000000	          0.00000000	          0.00000000	          0.00000000	          0.00000000	          0.00000000	         -0.08737060	          0.00000000	          0.00000000	          0.00000000	          0.00000000	
          0.46974846	         19.43051412	        873.34564154	         17.19307800	          0.00003264	          0.00000000	          0.00001222	          0.00000000	          0.00000000	          0.00000000	          0.00000000	          0.00000000	          0.00000000	          0.00000000	         -0.02572706	          0.00000000	          0.00000000	          0.00000000	          0.00000000	
          0.50106502	         24.03887266	        875.06287144	         16.29180765	          0.00000404	          0.00000000	          0.00000113	          0.00000000	          0.00000000	          0.00000000	          0.00000000	          0.00000000	          0.00000000	          0.00000000	         -0.00240513	          0.00000000	          0.00000000	          0.00000000	          0.00000000	
          0.53238158	         26.40877869	        871.23560679	         15.31001327	          0.00078963	          0.00000000	          0.00013710	          0.00000000	          0.00000000	          0.00000000	          0.00000000	          0.00000000	          0.00000000	          0.00000000	         -0.29900501	          0.00000000	          0.00000000	          0.00000000	          0.00000000	
          0.56369815	         27.81145065	        856.85477824	         13.57767359	          0.00421524	          0.00000000	          0.00057193	          0.00000000	          0.00000000	          0.00000000	          0.00000000	          0.00000000	          0.00000000	          0.00000000	         -1.35501243	          0.00000000	          0.00000000	          0.00000000	          0.00000000	
          0.59501471	         29.19618552	        842.92164678	         11.31650232	          0.00748093	          0.00000000	          0.00080613	          0.00000000	          0.00000000	          0.00000000	          0.00000000	          0.00000000	          0.00000000	          0.00000000	         -2.32196218	          0.00000000	          0.00000000	          0.00000000	          0.00000000	
          0.62633127	         32.08644019	        828.26538343	          9.38800540	          0.02071565	          0.00000000	          0.00177099	          0.00000000	          0.00000000	          0.00000000	          0.00000000	          0.00000000	          0.00000000	          0.00000000	         -7.39350645	          0.00000000	          0.00000000	          0.00000000	          0.00000000	
          0.65764784	         39.30221600	        776.43322207	         -1.76325147	          0.10705985	          0.00000000	          0.00776019	        -44.59143424	        134.37793297	         93.99641127	          1.45001056	          0.00000000	         -0.45048724	          0.00000000	        -60.63905573	          0.00000000	          0.00000000	        105.86165385	          0.00000000	
